<svg width="18" height="18" viewBox="0 0 18 18" fill="none" xmlns="http://www.w3.org/2000/svg">
<g clip-path="url(#clip0_95_351)">
<path d="M13.8579 14.8862H6.23648C5.36445 14.8862 4.62038 14.201 4.42757 13.2193L2.31929 2.50582C2.2446 2.12685 2.01117 1.82163 1.69335 1.68984L0.714759 1.28274C0.488041 1.18899 0.370697 0.900532 0.452103 0.638934C0.533509 0.377335 0.783509 0.241939 1.01023 0.335869L1.98882 0.74278C2.58757 0.991037 3.02851 1.56688 3.16992 2.28334L5.27726 12.9968C5.37992 13.5168 5.77335 13.88 6.23554 13.88H13.8569C14.0982 13.88 14.2929 14.1047 14.2929 14.383C14.2929 14.6614 14.0982 14.8862 13.8579 14.8862Z" fill="#AAAAAA"/>
<mask id="mask0_95_351" style="mask-type:luminance" maskUnits="userSpaceOnUse" x="3" y="4" width="15" height="9">
<path d="M3.19995 4.84616H17.6218V12.4615H3.19995V4.84616Z" fill="white"/>
</mask>
<g mask="url(#mask0_95_351)">
<path d="M15.3016 12.4401H4.73675C4.4955 12.4401 4.30081 12.2155 4.30081 11.9371C4.30081 11.6587 4.4955 11.4339 4.73675 11.4339H14.9867L16.568 5.88552H3.6419C3.40065 5.88552 3.20581 5.6607 3.20581 5.38234C3.20581 5.10397 3.40065 4.87933 3.6419 4.87933H17.1686C17.3082 4.87933 17.44 4.9565 17.5224 5.08721C17.6047 5.2181 17.6269 5.38576 17.5833 5.53901L15.7153 12.0936C15.6572 12.3004 15.4896 12.4401 15.3016 12.4401Z" fill="#AAAAAA"/>
</g>
<path d="M7.06886 12.2724C6.90792 12.2724 6.77808 12.1226 6.77808 11.9371V5.71226C6.77808 5.52656 6.90792 5.37674 7.06886 5.37674C7.22964 5.37674 7.35948 5.52656 7.35948 5.71226V11.9371C7.35948 12.1226 7.22964 12.2724 7.06886 12.2724Z" fill="#AAAAAA"/>
<path d="M10.1782 12.051C10.0173 12.051 9.88745 11.9012 9.88745 11.7157V5.63835C9.88745 5.45283 10.0173 5.30301 10.1782 5.30301C10.339 5.30301 10.4689 5.45283 10.4689 5.63835V11.7146C10.4689 11.9001 10.339 12.051 10.1782 12.051Z" fill="#AAAAAA"/>
<path d="M13.3695 12.1987C13.2087 12.1987 13.0789 12.0489 13.0789 11.8632V5.78599C13.0789 5.60047 13.2087 5.45065 13.3695 5.45065C13.5304 5.45065 13.6603 5.60047 13.6603 5.78599V11.8621C13.6603 12.0476 13.5304 12.1987 13.3695 12.1987Z" fill="#AAAAAA"/>
<path d="M16.566 7.93251H3.81724C3.65646 7.93251 3.52661 7.78269 3.52661 7.59699C3.52661 7.41148 3.65646 7.26166 3.81724 7.26166H16.566C16.7269 7.26166 16.8568 7.41148 16.8568 7.59699C16.8568 7.78269 16.7269 7.93251 16.566 7.93251Z" fill="#AAAAAA"/>
<path d="M15.7182 10.0253H4.22788C4.0671 10.0253 3.93726 9.8755 3.93726 9.68998C3.93726 9.50428 4.0671 9.35446 4.22788 9.35446H15.7191C15.8799 9.35446 16.0098 9.50428 16.0098 9.68998C16.0098 9.8755 15.879 10.0253 15.7182 10.0253Z" fill="#AAAAAA"/>
<path d="M6.4585 17.8567C5.50896 17.8567 4.73584 16.9644 4.73584 15.8688C4.73584 14.7732 5.50896 13.8811 6.4585 13.8811C7.40803 13.8811 8.18115 14.7721 8.18115 15.8677C8.18115 16.9644 7.40803 17.8567 6.4585 17.8567ZM6.4585 14.8862C5.98959 14.8862 5.60787 15.3267 5.60787 15.8677C5.60787 16.4088 5.98959 16.8494 6.4585 16.8494C6.9274 16.8494 7.30928 16.4088 7.30928 15.8677C7.30928 15.3267 6.9274 14.8862 6.4585 14.8862Z" fill="#AAAAAA"/>
<path d="M13.8581 17.8567C12.9085 17.8567 12.1353 16.9644 12.1353 15.8688C12.1353 14.7732 12.9085 13.8811 13.8581 13.8811C14.8076 13.8811 15.5807 14.7732 15.5807 15.8688C15.5807 16.9644 14.8076 17.8567 13.8581 17.8567ZM13.8581 14.8862C13.3892 14.8862 13.0073 15.3267 13.0073 15.8677C13.0073 16.4088 13.3892 16.8494 13.8581 16.8494C14.327 16.8494 14.7087 16.4088 14.7087 15.8677C14.7087 15.3267 14.327 14.8862 13.8581 14.8862Z" fill="#AAAAAA"/>
</g>
<defs>
<clipPath id="clip0_95_351">
<rect width="18" height="18" fill="white"/>
</clipPath>
</defs>
</svg>
