<svg width="17" height="17" viewBox="0 0 17 17" fill="none" xmlns="http://www.w3.org/2000/svg">
<g clip-path="url(#clip0_92_1905)">
<path d="M6.17936 12.5632C5.85884 12.5632 5.59888 12.8231 5.59888 13.1437C5.59888 13.4643 5.85884 13.7243 6.17936 13.7243H10.8241C11.1446 13.7243 11.4046 13.4643 11.4046 13.1437C11.4046 12.8231 11.1446 12.5632 10.8241 12.5632H6.17936Z" fill="white"/>
<mask id="mask0_92_1905" style="mask-type:luminance" maskUnits="userSpaceOnUse" x="0" y="0" width="17" height="17">
<path d="M0.178711 0.17868H16.8047V16.8047H0.178711V0.17868Z" fill="white"/>
</mask>
<g mask="url(#mask0_92_1905)">
<path fill-rule="evenodd" clip-rule="evenodd" d="M8.50168 0.177795C7.9536 0.177795 7.45565 0.334691 6.91536 0.597483C6.39297 0.85142 5.78965 1.22595 5.03598 1.69363L3.43621 2.68653C2.72327 3.12907 2.15218 3.48341 1.71212 3.82058C1.25631 4.16961 0.906218 4.52501 0.653342 4.98702C0.401176 5.44797 0.287488 5.93832 0.232947 6.51809C0.180176 7.07997 0.180176 7.76706 0.180176 8.62874V9.877C0.180176 11.3509 0.180176 12.5143 0.298467 13.4238C0.41977 14.3569 0.674592 15.1102 1.25029 15.7057C1.82864 16.3041 2.56478 16.5713 3.47605 16.6981C4.35917 16.8208 5.48701 16.8208 6.90863 16.8208H10.0949C11.5163 16.8208 12.6444 16.8208 13.5275 16.6981C14.4388 16.5713 15.1749 16.3041 15.7532 15.7057C16.3289 15.1102 16.5838 14.3569 16.7051 13.4238C16.8234 12.5143 16.8234 11.3509 16.8234 9.87718V8.62874C16.8234 7.76706 16.8234 7.07997 16.7706 6.51809C16.716 5.93832 16.6024 5.44797 16.35 4.98702C16.0973 4.52501 15.7472 4.16961 15.2914 3.82058C14.8514 3.48341 14.2803 3.12907 13.5673 2.68653L11.9676 1.69363C11.2139 1.22595 10.6106 0.85142 10.0882 0.597483C9.54788 0.334691 9.04993 0.177795 8.50168 0.177795ZM5.62177 2.69681C6.40802 2.20876 6.96087 1.86646 7.42306 1.64174C7.87338 1.42269 8.19231 1.33893 8.50168 1.33893C8.81122 1.33893 9.13015 1.42269 9.58047 1.64174C10.0427 1.86646 10.5955 2.20876 11.3818 2.69681L12.93 3.65766C13.6737 4.11932 14.196 4.44409 14.5854 4.74247C14.9645 5.03254 15.1825 5.27213 15.3316 5.54448C15.4811 5.81772 15.5685 6.13718 15.6144 6.62682C15.6615 7.12814 15.6622 7.76068 15.6622 8.65708V9.83468C15.6622 11.3603 15.661 12.4481 15.5537 13.2742C15.4481 14.0854 15.2496 14.5561 14.9185 14.8986C14.59 15.2384 14.1427 15.4401 13.3676 15.5479C12.5737 15.6584 11.5266 15.6597 10.0499 15.6597H6.95361C5.47692 15.6597 4.42982 15.6584 3.63596 15.5479C2.86086 15.4401 2.41355 15.2384 2.08506 14.8986C1.75392 14.5561 1.55541 14.0854 1.44986 13.2742C1.34255 12.4481 1.34131 11.3603 1.34131 9.83468V8.65708C1.34131 7.76068 1.34202 7.12814 1.38912 6.62682C1.43499 6.13718 1.52247 5.81772 1.67193 5.54448C1.82103 5.27213 2.03902 5.03254 2.41816 4.74247C2.80756 4.44409 3.32978 4.11932 4.07353 3.65766L5.62177 2.69681Z" fill="white"/>
</g>
<mask id="mask1_92_1905" style="mask-type:luminance" maskUnits="userSpaceOnUse" x="-2" y="-2" width="21" height="21">
<path d="M18.7001 -1.70001H-1.69995V18.7H18.7001V-1.70001Z" fill="black" fill-opacity="0.01"/>
</mask>
<g mask="url(#mask1_92_1905)">
<mask id="mask2_92_1905" style="mask-type:luminance" maskUnits="userSpaceOnUse" x="6" y="8" width="5" height="2">
<path d="M10.1547 8.52264H6.89075V9.11198H10.1547V8.52264Z" fill="white"/>
</mask>
<g mask="url(#mask2_92_1905)">
<mask id="mask3_92_1905" style="mask-type:luminance" maskUnits="userSpaceOnUse" x="6" y="8" width="2" height="2">
<path d="M6.89795 8.56796H7.11736V9.0213H6.89795V8.56796Z" fill="white"/>
</mask>
<g mask="url(#mask3_92_1905)">
<path d="M7.039 8.88756V8.98956H6.96888V8.88756L6.90088 8.60352H6.98163L7.00359 8.75793L7.00784 8.80397L7.01138 8.75793L7.03405 8.60352H7.107L7.039 8.88756Z" fill="white"/>
</g>
<path d="M7.18952 8.6694C7.21679 8.6694 7.23839 8.67613 7.25398 8.68924C7.26956 8.70252 7.27735 8.72217 7.27735 8.74803V8.91732C7.27735 8.94424 7.26956 8.96407 7.25398 8.97682C7.23839 8.98922 7.21679 8.99524 7.18952 8.99524C7.16207 8.99524 7.14064 8.98922 7.12506 8.97682C7.10948 8.96407 7.10168 8.94424 7.10168 8.91732V8.74803C7.10168 8.72111 7.10948 8.70128 7.12506 8.68853C7.14064 8.67578 7.16207 8.6694 7.18952 8.6694ZM7.17181 8.90953C7.17181 8.91909 7.17287 8.92493 7.17535 8.92724C7.17818 8.92972 7.18314 8.93078 7.19023 8.93078C7.19678 8.93078 7.20121 8.92972 7.20368 8.92724C7.20599 8.92493 7.20723 8.91909 7.20723 8.90953V8.75582C7.20723 8.74643 7.20581 8.74059 7.20298 8.73811C7.2005 8.73528 7.19625 8.73386 7.19023 8.73386C7.1835 8.73386 7.17889 8.73528 7.17606 8.73811C7.17323 8.74059 7.17181 8.74643 7.17181 8.75582V8.90953Z" fill="white"/>
<path d="M7.4096 8.98955L7.40676 8.96547C7.39915 8.97361 7.39083 8.98034 7.38197 8.98601C7.37294 8.99114 7.36355 8.9938 7.35364 8.9938C7.34372 8.9938 7.33451 8.99203 7.32601 8.98884C7.31787 8.98565 7.31149 8.97946 7.30689 8.97042C7.30211 8.96157 7.2998 8.94847 7.2998 8.93147V8.67505H7.37064V8.9088C7.37064 8.91783 7.37152 8.92332 7.37347 8.92509C7.37577 8.92704 7.37985 8.92792 7.38551 8.92792C7.38923 8.92792 7.3926 8.92757 7.39543 8.92651C7.39826 8.92509 7.40127 8.92332 7.40464 8.92084V8.67505H7.47476V8.98955H7.4096Z" fill="white"/>
<path d="M7.56605 8.67505L7.56817 8.70197C7.57384 8.694 7.57986 8.68692 7.58659 8.68072C7.59367 8.6747 7.60093 8.67151 7.60855 8.67151C7.61138 8.67151 7.61368 8.67151 7.61563 8.67151C7.6174 8.67151 7.61917 8.67151 7.62059 8.67151V8.74801C7.61067 8.74712 7.60164 8.74765 7.59367 8.74943C7.58552 8.75084 7.57826 8.75474 7.57171 8.76076V8.98955H7.50159V8.67505H7.56605Z" fill="white"/>
<path d="M7.77899 9.04977H7.70886V8.67506H7.76978L7.77403 8.6956C7.78147 8.68763 7.78926 8.68143 7.7974 8.67718C7.8059 8.67293 7.81547 8.67081 7.82645 8.67081C7.86505 8.67081 7.88453 8.69259 7.88453 8.73597V8.9251C7.88453 8.95255 7.87957 8.97096 7.86965 8.98035C7.85974 8.98938 7.84592 8.99381 7.82857 8.99381C7.82007 8.99381 7.81157 8.99168 7.80307 8.98743C7.79457 8.98318 7.78642 8.97805 7.77899 8.97185V9.04977ZM7.80024 8.73385C7.79634 8.73385 7.7928 8.73456 7.78961 8.73597C7.78625 8.73704 7.78271 8.73916 7.77899 8.74235V8.92297C7.78501 8.92829 7.79191 8.93077 7.79953 8.93077C7.80555 8.93077 7.80962 8.92988 7.81157 8.92793C7.81334 8.92616 7.8144 8.92049 7.8144 8.91093V8.75368C7.8144 8.7443 7.81316 8.73863 7.81086 8.73668C7.80891 8.73491 7.80537 8.73385 7.80024 8.73385Z" fill="white"/>
<path d="M8.01653 8.67505H8.08099V8.98955H8.01653L8.0144 8.9683C8.0059 8.97538 7.99705 8.9814 7.9882 8.98601C7.97917 8.99061 7.97013 8.99309 7.96128 8.99309C7.94428 8.99309 7.93082 8.98867 7.9209 8.97963C7.91134 8.97078 7.90674 8.95254 7.90674 8.92509V8.73526C7.90674 8.71507 7.91134 8.69949 7.9209 8.68851C7.93082 8.67718 7.9457 8.67151 7.96553 8.67151C7.98395 8.67151 7.99988 8.67859 8.0137 8.69276L8.01653 8.67505ZM7.97686 8.91305C7.97686 8.92261 7.97775 8.92828 7.9797 8.93005C7.98147 8.93147 7.98536 8.93218 7.99103 8.93218C7.99422 8.93218 7.99758 8.93129 8.00095 8.92934C8.00413 8.92757 8.0075 8.92509 8.01086 8.92226V8.74518C8.00803 8.74146 8.0052 8.73845 8.00236 8.73597C7.99953 8.73367 7.99563 8.73243 7.99103 8.73243C7.98572 8.73243 7.982 8.73367 7.9797 8.73597C7.97775 8.73792 7.97686 8.74305 7.97686 8.75155V8.91305Z" fill="white"/>
<path d="M8.17261 8.67505L8.17474 8.70197C8.1804 8.694 8.18643 8.68692 8.19315 8.68072C8.20024 8.6747 8.2075 8.67151 8.21511 8.67151C8.21795 8.67151 8.22025 8.67151 8.2222 8.67151C8.22397 8.67151 8.22574 8.67151 8.22715 8.67151V8.74801C8.21724 8.74712 8.20821 8.74765 8.20024 8.74943C8.19209 8.75084 8.18483 8.75474 8.17828 8.76076V8.98955H8.10815V8.67505H8.17261Z" fill="white"/>
<path d="M8.35381 8.67505H8.41827V8.98955H8.35381L8.35169 8.9683C8.34319 8.97538 8.33433 8.9814 8.32548 8.98601C8.31645 8.99061 8.30741 8.99309 8.29856 8.99309C8.28156 8.99309 8.2681 8.98867 8.25819 8.97963C8.24862 8.97078 8.24402 8.95254 8.24402 8.92509V8.73526C8.24402 8.71507 8.24862 8.69949 8.25819 8.68851C8.2681 8.67718 8.28298 8.67151 8.30281 8.67151C8.32123 8.67151 8.33716 8.67859 8.35098 8.69276L8.35381 8.67505ZM8.31414 8.91305C8.31414 8.92261 8.31503 8.92828 8.31698 8.93005C8.31875 8.93147 8.32264 8.93218 8.32831 8.93218C8.3315 8.93218 8.33486 8.93129 8.33823 8.92934C8.34141 8.92757 8.34478 8.92509 8.34814 8.92226V8.74518C8.34531 8.74146 8.34248 8.73845 8.33964 8.73597C8.33681 8.73367 8.33291 8.73243 8.32831 8.73243C8.323 8.73243 8.31928 8.73367 8.31698 8.73597C8.31503 8.73792 8.31414 8.74305 8.31414 8.75155V8.91305Z" fill="white"/>
<mask id="mask4_92_1905" style="mask-type:luminance" maskUnits="userSpaceOnUse" x="8" y="8" width="1" height="2">
<path d="M8.43201 8.65863H8.65867V9.09567H8.43201V8.65863Z" fill="white"/>
</mask>
<g mask="url(#mask4_92_1905)">
<path d="M8.44546 8.99097H8.51275V8.99522C8.51275 9.00089 8.51364 9.00443 8.51559 9.00585C8.51789 9.00762 8.52267 9.00868 8.52975 9.00868C8.53684 9.00868 8.54144 9.00762 8.54392 9.00585C8.54622 9.00443 8.54746 9.00018 8.54746 8.9931V8.95556C8.53985 8.96175 8.53188 8.96689 8.52338 8.97114C8.51488 8.97504 8.50655 8.97681 8.49859 8.97681C8.48159 8.97681 8.46777 8.97238 8.4575 8.96335C8.44759 8.95396 8.44263 8.93572 8.44263 8.90881V8.73527C8.44263 8.71508 8.44759 8.69914 8.4575 8.68781C8.46777 8.67647 8.48265 8.67081 8.50213 8.67081C8.5124 8.67081 8.52143 8.67275 8.52904 8.67647C8.53701 8.68037 8.54463 8.68568 8.55171 8.69277L8.55667 8.67506H8.61759V8.99522C8.61759 9.02356 8.60979 9.04233 8.59421 9.05189C8.57898 9.06181 8.55773 9.06677 8.53046 9.06677C8.50301 9.06677 8.48194 9.06181 8.46742 9.05189C8.45272 9.04233 8.44546 9.02373 8.44546 8.99593V8.99097ZM8.51275 8.89677C8.51275 8.9058 8.51364 8.91129 8.51559 8.91306C8.51789 8.91447 8.52161 8.91518 8.52692 8.91518C8.53436 8.91518 8.54126 8.9127 8.54746 8.90739V8.74235C8.54463 8.73916 8.54144 8.73668 8.53825 8.73527C8.53542 8.73349 8.53205 8.73243 8.52834 8.73243C8.52267 8.73243 8.5186 8.73367 8.51629 8.73597C8.51381 8.73792 8.51275 8.74306 8.51275 8.75156V8.89677Z" fill="white"/>
</g>
<path d="M8.70899 8.67505L8.71111 8.70197C8.71678 8.694 8.7228 8.68692 8.72953 8.68072C8.73661 8.6747 8.74387 8.67151 8.75149 8.67151C8.75432 8.67151 8.75662 8.67151 8.75857 8.67151C8.76034 8.67151 8.76211 8.67151 8.76353 8.67151V8.74801C8.75361 8.74712 8.74458 8.74765 8.73661 8.74943C8.72847 8.75084 8.72121 8.75474 8.71466 8.76076V8.98955H8.64453V8.67505H8.70899Z" fill="white"/>
<path d="M8.89019 8.67505H8.95465V8.98955H8.89019L8.88806 8.9683C8.87956 8.97538 8.87071 8.9814 8.86185 8.98601C8.85282 8.99061 8.84379 8.99309 8.83494 8.99309C8.81794 8.99309 8.80448 8.98867 8.79456 8.97963C8.785 8.97078 8.7804 8.95254 8.7804 8.92509V8.73526C8.7804 8.71507 8.785 8.69949 8.79456 8.68851C8.80448 8.67718 8.81935 8.67151 8.83919 8.67151C8.8576 8.67151 8.87354 8.67859 8.88735 8.69276L8.89019 8.67505ZM8.85052 8.91305C8.85052 8.92261 8.85141 8.92828 8.85335 8.93005C8.85512 8.93147 8.85902 8.93218 8.86469 8.93218C8.86787 8.93218 8.87124 8.93129 8.8746 8.92934C8.87779 8.92757 8.88116 8.92509 8.88452 8.92226V8.74518C8.88169 8.74146 8.87885 8.73845 8.87602 8.73597C8.87319 8.73367 8.86929 8.73243 8.86469 8.73243C8.85937 8.73243 8.85566 8.73367 8.85335 8.73597C8.85141 8.73792 8.85052 8.74305 8.85052 8.75155V8.91305Z" fill="white"/>
<path d="M9.05194 9.04977H8.98181V8.67506H9.04273L9.04698 8.6956C9.05442 8.68763 9.06221 8.68143 9.07035 8.67718C9.07885 8.67293 9.08842 8.67081 9.09939 8.67081C9.138 8.67081 9.15748 8.69259 9.15748 8.73597V8.9251C9.15748 8.95255 9.15252 8.97096 9.1426 8.98035C9.13269 8.98938 9.11887 8.99381 9.10152 8.99381C9.09302 8.99381 9.08452 8.99168 9.07602 8.98743C9.06752 8.98318 9.05937 8.97805 9.05194 8.97185V9.04977ZM9.07319 8.73385C9.06929 8.73385 9.06575 8.73456 9.06256 8.73597C9.0592 8.73704 9.05566 8.73916 9.05194 8.74235V8.92297C9.05796 8.92829 9.06486 8.93077 9.07248 8.93077C9.0785 8.93077 9.08257 8.92988 9.08452 8.92793C9.08629 8.92616 9.08735 8.92049 9.08735 8.91093V8.75368C9.08735 8.7443 9.08611 8.73863 9.08381 8.73668C9.08186 8.73491 9.07832 8.73385 9.07319 8.73385Z" fill="white"/>
<path d="M9.35821 8.98955H9.28808V8.75792C9.28808 8.74801 9.28667 8.74199 9.28383 8.73951C9.28136 8.7372 9.27764 8.73596 9.2725 8.73596C9.26577 8.73596 9.25975 8.73844 9.25408 8.74305V8.98955H9.18396V8.59784H9.25408V8.69417C9.26152 8.68762 9.26931 8.68213 9.27746 8.67788C9.28596 8.67363 9.29464 8.67151 9.30367 8.67151C9.32386 8.67151 9.33802 8.6777 9.34617 8.68992C9.35414 8.70179 9.35821 8.72162 9.35821 8.74942V8.98955Z" fill="white"/>
<path d="M9.46683 8.93005V8.73597H9.44275V8.67505H9.46683V8.62759H9.53696V8.67505H9.56387V8.73597H9.53696V8.91589C9.53696 8.92208 9.53767 8.92616 9.53908 8.92793C9.5405 8.92934 9.54351 8.93005 9.54829 8.93005C9.55059 8.93005 9.55272 8.93005 9.55467 8.93005C9.55697 8.93005 9.55909 8.92988 9.56104 8.92934V8.98955C9.55537 8.99097 9.54847 8.99203 9.5405 8.99309C9.53288 8.99451 9.52704 8.99522 9.52279 8.99522C9.51093 8.99522 9.50083 8.99398 9.49233 8.99168C9.48419 8.98938 9.47781 8.98371 9.47321 8.97468C9.46896 8.96529 9.46683 8.95042 9.46683 8.93005Z" fill="white"/>
<path d="M9.75574 8.87978V8.92015C9.75574 8.94672 9.74795 8.96584 9.73237 8.97753C9.71679 8.98939 9.69518 8.99524 9.66791 8.99524C9.64046 8.99524 9.61904 8.98939 9.60345 8.97753C9.58787 8.96584 9.58008 8.94672 9.58008 8.92015V8.74449C9.58008 8.71899 9.58787 8.70022 9.60345 8.68782C9.61904 8.6756 9.64046 8.6694 9.66791 8.6694C9.69518 8.6694 9.71679 8.67578 9.73237 8.68853C9.74795 8.70092 9.75574 8.71952 9.75574 8.74449V8.85782H9.6502V8.91378C9.6502 8.92139 9.65127 8.92635 9.65374 8.92865C9.65605 8.9306 9.66101 8.93149 9.66862 8.93149C9.67517 8.93149 9.6796 8.9306 9.68208 8.92865C9.68438 8.92635 9.68562 8.92139 9.68562 8.91378V8.87978H9.75574ZM9.66862 8.73386C9.66154 8.73386 9.65658 8.73528 9.65374 8.73811C9.65127 8.74059 9.6502 8.74573 9.6502 8.75369V8.81107H9.68562V8.75369C9.68562 8.74626 9.68438 8.74094 9.68208 8.73811C9.6796 8.73528 9.67517 8.73386 9.66862 8.73386Z" fill="white"/>
<path d="M9.76855 8.67505H9.84435L9.86772 8.78059L9.89039 8.67505H9.96618L9.9166 8.83372L9.96689 8.98955H9.89039L9.86772 8.89251L9.84435 8.98955H9.76926L9.82097 8.83372L9.76855 8.67505Z" fill="white"/>
<path d="M9.99784 8.93005V8.73597H9.97375V8.67505H9.99784V8.62759H10.068V8.67505H10.0949V8.73597H10.068V8.91589C10.068 8.92208 10.0687 8.92616 10.0701 8.92793C10.0715 8.92934 10.0745 8.93005 10.0793 8.93005C10.0816 8.93005 10.0837 8.93005 10.0857 8.93005C10.088 8.93005 10.0901 8.92988 10.092 8.92934V8.98955C10.0864 8.99097 10.0795 8.99203 10.0715 8.99309C10.0639 8.99451 10.058 8.99522 10.0538 8.99522C10.0419 8.99522 10.0318 8.99398 10.0233 8.99168C10.0152 8.98938 10.0088 8.98371 10.0042 8.97468C9.99996 8.96529 9.99784 8.95042 9.99784 8.93005Z" fill="white"/>
</g>
</g>
</g>
<defs>
<clipPath id="clip0_92_1905">
<rect width="17" height="17" fill="white"/>
</clipPath>
</defs>
</svg>
