<svg width="222" height="115" viewBox="0 0 222 115" fill="none" xmlns="http://www.w3.org/2000/svg">
<path d="M5.923 0.199997H24.419L28.131 5.896L24.227 9.736L21.475 5.704H8.227L6.563 7.432V15.432L8.867 18.888H24.995L29.731 25.992V40.072L24.995 45H3.555L0.419 40.584L4.259 36.552L6.371 39.496H22.499L23.715 38.408V26.76L22.051 24.328H5.859L0.547 16.392V5.768L5.923 0.199997ZM38.794 0.199997H44.81V21L49.418 18.312H57.418L62.026 21V0.199997H68.106V45H62.026V27.08L59.85 23.816H46.474L44.81 25.544V45H38.794V0.199997ZM77.233 0.199997H106.417V5.704H94.833V39.496H106.417V45H77.233V39.496H88.817V5.704H77.233V0.199997ZM138.776 0.199997H144.792V30.28L130.648 45H125.784L115.608 29.96V0.199997H121.624V29L128.472 39.304L138.776 28.616V0.199997ZM165.119 0.199997H182.655V45H176.639V24.968H160.447V45H154.495V11.144L165.119 0.199997ZM160.447 12.68V19.464H176.639V5.704H167.295L160.447 12.68ZM192.358 0.199997H198.374V1.608L205.094 11.592L215.526 0.199997H221.606V45H215.526V8.136L209.638 14.6V19.784H204.07V19.4L198.374 10.952V45H192.358V0.199997ZM5.923 70.2H24.419L28.131 75.896L24.227 79.736L21.475 75.704H8.227L6.563 77.432V85.432L8.867 88.888H24.995L29.731 95.992V110.072L24.995 115H3.555L0.419 110.584L4.259 106.552L6.371 109.496H22.499L23.715 108.408V96.76L22.051 94.328H5.859L0.547 86.392V75.768L5.923 70.2ZM36.746 70.2H70.154V75.704H51.786L56.522 78.968V115H50.442V79.992L48.202 75.704H36.746V70.2ZM82.673 70.2H101.169L106.417 78.2V109.432L101.105 115H82.609L77.233 107V75.768L82.673 70.2ZM83.185 106.104L85.489 109.496H98.737L100.401 107.704V79.096L98.161 75.704H84.913L83.185 77.496V106.104ZM115.544 70.2H137.752L144.856 80.568V87.288L138.648 93.624L144.856 102.648V115H138.776V103.48L132.568 94.328H126.04L121.56 91.576V115H115.544V70.2ZM121.56 75.704V88.824H135.768L138.776 85.816V81.528L134.744 75.704H121.56ZM159.167 70.2H182.911V75.704H161.407L159.743 77.496V88.76H174.527V94.264H159.743V106.104L161.983 109.496H182.911V115H159.039L153.727 107V75.768L159.167 70.2ZM197.798 70.2H216.294L220.006 75.896L216.102 79.736L213.35 75.704H200.102L198.438 77.432V85.432L200.742 88.888H216.87L221.606 95.992V110.072L216.87 115H195.43L192.294 110.584L196.134 106.552L198.246 109.496H214.374L215.59 108.408V96.76L213.926 94.328H197.734L192.422 86.392V75.768L197.798 70.2Z" fill="black"/>
</svg>
