<svg width="24" height="24" viewBox="0 0 24 24" fill="none" xmlns="http://www.w3.org/2000/svg">
<mask id="mask0_97_516" style="mask-type:luminance" maskUnits="userSpaceOnUse" x="2" y="1" width="20" height="22">
<path d="M2 1H22V23H2V1Z" fill="white"/>
</mask>
<g mask="url(#mask0_97_516)">
<path fill-rule="evenodd" clip-rule="evenodd" d="M10.0649 3.13949C9.54481 3.66084 9.14722 4.50578 9.14722 5.76001V7.19322H14.8649V5.76001C14.8649 3.49057 13.3658 2.41784 11.9878 2.38415C11.2835 2.36697 10.5879 2.61538 10.0649 3.13949ZM16.2944 7.19322V5.76001C16.2944 2.78703 14.2199 1.06415 12.0243 1.0103C10.9419 0.983945 9.85064 1.36894 9.03352 2.18822C8.21353 3.01001 7.71773 4.2184 7.71773 5.76001V7.19322H2V19.5616C2 21.4591 3.59992 22.9972 5.57361 22.9972H18.4386C20.4122 22.9972 22.0122 21.4591 22.0122 19.5616V7.19322H16.2944ZM14.8649 8.56753V9.25457H16.2944V8.56753H20.5827V19.5616C20.5827 20.7001 19.6228 21.6229 18.4386 21.6229H5.57361C4.3894 21.6229 3.42949 20.7001 3.42949 19.5616V8.56753H7.71773V9.25457H9.14722V8.56753H14.8649Z" fill="#AAAAAA"/>
</g>
</svg>
