<svg width="19" height="19" viewBox="0 0 19 19" fill="none" xmlns="http://www.w3.org/2000/svg">
<path d="M6.39527 0.473721C2.31331 1.959 -0.2922 6.00711 0.0262507 10.2882C0.315752 13.6956 2.34226 16.6953 5.43992 18.2097C6.85848 18.9086 7.37958 19.0251 9.52189 18.996C11.0852 18.996 12.359 18.7922 12.9959 18.5009C19.2781 15.676 20.9572 8.19134 16.4699 3.06568C14.1539 0.415474 9.72454 -0.720325 6.39527 0.473721ZM13.1986 1.40566C14.9645 2.16286 16.8463 4.05586 17.7148 6.00711C18.5833 7.90011 18.5833 11.2201 17.7148 13.1131C16.8463 15.0353 14.9645 16.9574 13.1986 17.7437C11.0852 18.7048 7.61118 18.7048 5.75837 17.7437C3.99242 16.8409 2.40016 15.2391 1.47376 13.4917C0.807904 12.2395 0.692103 11.6861 0.692103 9.56013C0.692103 7.52151 0.807904 6.85168 1.38691 5.77413C2.60281 3.41515 4.71617 1.60952 7.20588 0.794075C8.45073 0.386351 11.5773 0.706705 13.1986 1.40566Z" fill="white"/>
<path d="M9.23291 1.69689C9.23291 1.84251 9.37766 1.98812 9.52241 1.98812C9.69611 1.98812 9.81191 1.84251 9.81191 1.69689C9.81191 1.52216 9.69611 1.40566 9.52241 1.40566C9.37766 1.40566 9.23291 1.52216 9.23291 1.69689Z" fill="white"/>
<path d="M12.2718 2.27935C12.1849 2.42497 12.2428 2.57058 12.3876 2.57058C12.5613 2.57058 12.706 2.42497 12.706 2.27935C12.706 2.10461 12.6481 1.98812 12.5902 1.98812C12.5034 1.98812 12.3586 2.10461 12.2718 2.27935Z" fill="white"/>
<path d="M3.73242 4.02673C3.73242 4.17234 3.87717 4.31796 4.02192 4.31796C4.19562 4.31796 4.31142 4.17234 4.31142 4.02673C4.31142 3.85199 4.19562 3.7355 4.02192 3.7355C3.87717 3.7355 3.73242 3.85199 3.73242 4.02673Z" fill="white"/>
<path d="M14.7319 4.02673C14.7319 4.17234 14.8767 4.31796 15.0214 4.31796C15.1951 4.31796 15.3109 4.17234 15.3109 4.02673C15.3109 3.85199 15.1951 3.7355 15.0214 3.7355C14.8767 3.7355 14.7319 3.85199 14.7319 4.02673Z" fill="white"/>
<path d="M8.11653 4.52009C6.72692 5.30641 6.23477 7.19941 7.10328 8.42258C7.36383 8.80118 7.50858 9.12154 7.47963 9.17978C7.42173 9.20891 6.92957 9.55838 6.40847 9.90786C5.16362 10.7816 3.77401 13.4318 4.58462 13.4318C4.72937 13.4318 5.01887 12.9658 5.19257 12.4124C5.36627 11.8882 5.94527 11.0437 6.46637 10.5777C7.36383 9.79137 7.56648 9.73312 9.65089 9.79137C11.6484 9.82049 11.9379 9.90786 12.7196 10.6651C13.1828 11.1019 13.7039 11.9174 13.9066 12.4707C14.0803 12.9949 14.3408 13.4318 14.4856 13.4318C15.2962 13.4318 13.9066 10.7816 12.6617 9.90786C12.1406 9.55838 11.6484 9.20891 11.5905 9.17978C11.5616 9.12154 11.7063 8.80118 11.9669 8.42258C13.5881 6.09273 10.6641 3.09305 8.11653 4.52009ZM11.1273 5.4229C11.5905 5.85975 11.8511 6.47133 11.8511 7.02467C11.8511 7.57801 11.5905 8.1896 11.1273 8.62644C10.6931 9.09241 10.0851 9.35452 9.53508 9.35452C8.98503 9.35452 8.37708 9.09241 7.94283 8.62644C7.47963 8.1896 7.21908 7.57801 7.21908 7.02467C7.21908 6.47133 7.47963 5.85975 7.94283 5.4229C8.37708 4.95693 8.98503 4.69482 9.53508 4.69482C10.0851 4.69482 10.6931 4.95693 11.1273 5.4229Z" fill="white"/>
<path d="M16.4702 6.67695C16.4702 6.82256 16.615 6.88081 16.7597 6.79344C16.9334 6.70607 17.0492 6.56045 17.0492 6.47308C17.0492 6.41484 16.9334 6.35659 16.7597 6.35659C16.615 6.35659 16.4702 6.50221 16.4702 6.67695Z" fill="white"/>
<path d="M16.9036 8.10399C16.9904 8.2496 17.1352 8.39522 17.2221 8.39522C17.28 8.39522 17.3379 8.2496 17.3379 8.10399C17.3379 7.92925 17.1931 7.81276 17.0194 7.81276C16.8746 7.81276 16.8167 7.92925 16.9036 8.10399Z" fill="white"/>
<path d="M1.41553 9.56011C1.41553 9.70573 1.56028 9.85134 1.70503 9.85134C1.87873 9.85134 1.99453 9.70573 1.99453 9.56011C1.99453 9.38537 1.87873 9.26888 1.70503 9.26888C1.56028 9.26888 1.41553 9.38537 1.41553 9.56011Z" fill="white"/>
<path d="M17.0488 9.56011C17.0488 9.70573 17.1936 9.85134 17.3383 9.85134C17.512 9.85134 17.6278 9.70573 17.6278 9.56011C17.6278 9.38537 17.512 9.26888 17.3383 9.26888C17.1936 9.26888 17.0488 9.38537 17.0488 9.56011Z" fill="white"/>
<path d="M16.9036 11.0163C16.8167 11.1619 16.8746 11.3075 17.0194 11.3075C17.1931 11.3075 17.3379 11.1619 17.3379 11.0163C17.3379 10.8415 17.28 10.725 17.2221 10.725C17.1352 10.725 16.9904 10.8415 16.9036 11.0163Z" fill="white"/>
<path d="M16.4702 12.4725C16.4702 12.6181 16.615 12.7637 16.7887 12.7637C16.9334 12.7637 16.9913 12.6181 16.9045 12.4725C16.8176 12.2977 16.6729 12.1812 16.586 12.1812C16.5281 12.1812 16.4702 12.2977 16.4702 12.4725Z" fill="white"/>
<path d="M3.73242 15.0935C3.73242 15.2392 3.87717 15.3848 4.02192 15.3848C4.19562 15.3848 4.31142 15.2392 4.31142 15.0935C4.31142 14.9188 4.19562 14.8023 4.02192 14.8023C3.87717 14.8023 3.73242 14.9188 3.73242 15.0935Z" fill="white"/>
<path d="M14.7319 15.0935C14.7319 15.2392 14.8767 15.3848 15.0214 15.3848C15.1951 15.3848 15.3109 15.2392 15.3109 15.0935C15.3109 14.9188 15.1951 14.8023 15.0214 14.8023C14.8767 14.8023 14.7319 14.9188 14.7319 15.0935Z" fill="white"/>
<path d="M12.2718 16.8409C12.3586 16.9865 12.5034 17.1321 12.5902 17.1321C12.6481 17.1321 12.706 16.9865 12.706 16.8409C12.706 16.6662 12.5613 16.5497 12.3876 16.5497C12.2428 16.5497 12.1849 16.6662 12.2718 16.8409Z" fill="white"/>
<path d="M9.23291 17.4234C9.23291 17.569 9.37766 17.7146 9.52241 17.7146C9.69611 17.7146 9.81191 17.569 9.81191 17.4234C9.81191 17.2486 9.69611 17.1321 9.52241 17.1321C9.37766 17.1321 9.23291 17.2486 9.23291 17.4234Z" fill="white"/>
</svg>
