<svg width="18" height="18" viewBox="0 0 18 18" fill="none" xmlns="http://www.w3.org/2000/svg">
<g clip-path="url(#clip0_93_324)">
<mask id="mask0_93_324" style="mask-type:luminance" maskUnits="userSpaceOnUse" x="0" y="0" width="18" height="18">
<path d="M0.0588379 0.127319H17.9508V17.8753H0.0588379V0.127319Z" fill="white"/>
</mask>
<g mask="url(#mask0_93_324)">
<path d="M16.1432 19.4743H1.76761C0.823551 19.4743 0.0551758 20.2425 0.0551758 21.1867V35.2922C0.0551758 36.2364 0.823551 37.0046 1.76761 37.0046H16.1432C17.0875 37.0046 17.8557 36.2364 17.8557 35.2922V21.1867C17.8557 20.2425 17.0875 19.4743 16.1432 19.4743ZM6.71124 20.3777H11.1994V26.0053L9.22074 24.5696C9.06249 24.4549 8.84836 24.4549 8.69011 24.5696L6.71124 26.0053V20.3777ZM16.9523 35.2922C16.9523 35.7382 16.5893 36.1012 16.1432 36.1012H1.76761C1.32155 36.1012 0.958551 35.7382 0.958551 35.2922V21.1867C0.958551 20.7407 1.32155 20.3777 1.76761 20.3777H5.80786V26.8909C5.80786 27.0607 5.90311 27.2162 6.05424 27.2932C6.11911 27.3262 6.18943 27.3426 6.25936 27.3426C6.35293 27.3426 6.44611 27.3135 6.52468 27.2565L8.95543 25.4932L11.3858 27.2565C11.5232 27.3562 11.7049 27.3703 11.8562 27.2932C12.0075 27.2162 12.1028 27.0607 12.1028 26.8909V20.3777H16.143C16.5893 20.3777 16.9523 20.7407 16.9523 21.1867V35.2922ZM35.6237 19.4743H21.2481C20.304 19.4743 19.5357 20.2425 19.5357 21.1867V35.2922C19.5357 36.2364 20.304 37.0046 21.2481 37.0046H35.6237C36.568 37.0046 37.3362 36.2364 37.3362 35.2922V21.1867C37.3362 20.2425 36.568 19.4743 35.6237 19.4743ZM26.1919 20.3777H30.6803V26.0053L28.7012 24.5696C28.543 24.4549 28.329 24.4549 28.1708 24.5696L26.1919 26.0053V20.3777ZM36.4328 35.2922C36.4328 35.7382 36.07 36.1012 35.6237 36.1012H21.2481C20.802 36.1012 20.439 35.7382 20.439 35.2922V21.1867C20.439 20.7407 20.802 20.3777 21.2481 20.3777H25.2885V26.8909C25.2885 27.0607 25.3838 27.2162 25.5351 27.2932C25.6862 27.3705 25.8681 27.3562 26.0054 27.2565L28.4359 25.4932L30.8667 27.2565C30.9452 27.3135 31.0382 27.3426 31.1318 27.3426C31.2019 27.3426 31.2722 27.3264 31.3369 27.2932C31.4882 27.2162 31.5835 27.0607 31.5835 26.8909V20.3777H35.6237C36.0698 20.3777 36.4328 20.7407 36.4328 21.1867V35.2922ZM16.1432 0.236245H1.76761C0.823551 0.236245 0.0551758 1.00443 0.0551758 1.94868V16.0541C0.0551758 16.9984 0.823551 17.7666 1.76761 17.7666H16.1432C17.0875 17.7666 17.8557 16.9984 17.8557 16.0541V1.94868C17.8557 1.00443 17.0875 0.236245 16.1432 0.236245ZM6.71143 1.13962H11.1996V6.76743L9.22055 5.33175C9.06249 5.217 8.84836 5.217 8.69011 5.33175L6.71143 6.76743V1.13962ZM16.9523 16.0541C16.9523 16.5002 16.5893 16.8632 16.1432 16.8632H1.76761C1.32155 16.8632 0.958551 16.5002 0.958551 16.0541V1.94868C0.958551 1.50262 1.32155 1.13962 1.76761 1.13962H5.80805V7.653C5.80805 7.82268 5.9033 7.97812 6.05461 8.05537C6.20593 8.13243 6.38761 8.11837 6.52486 8.01862L8.95543 6.25518L11.3862 8.01862C11.4647 8.07562 11.5577 8.10468 11.6513 8.10468C11.7214 8.10468 11.7917 8.08837 11.8564 8.05537C12.0077 7.97812 12.103 7.82268 12.103 7.653V1.13962H16.143C16.5893 1.13962 16.9523 1.50262 16.9523 1.94868V16.0541ZM21.1495 17.7594C21.1739 17.7636 21.1986 17.7664 21.2241 17.7664H33.1439C34.2257 17.7664 35.1057 16.8864 35.1057 15.8046C35.1057 14.8903 34.477 14.1202 33.6293 13.9037V12.7176C36.1034 12.4359 38.032 10.3307 38.032 7.78256C38.032 5.23443 36.1032 3.12937 33.6293 2.84756V-0.785068C33.6293 -1.03444 33.427 -1.23676 33.1776 -1.23676H19.2917C19.0424 -1.23676 18.84 -1.03444 18.84 -0.785068V15.5334C18.84 16.7647 19.8419 17.7666 21.0732 17.7666C21.0992 17.7666 21.1247 17.7639 21.1495 17.7596V17.7594ZM34.2025 15.8047C34.2025 16.3882 33.7275 16.8632 33.1439 16.8632H22.5657C22.7571 16.5542 22.8657 16.1906 22.8657 15.8047C22.8657 15.4189 22.7571 15.0553 22.5657 14.7461H33.1439C33.7275 14.7461 34.2025 15.2211 34.2025 15.8047ZM37.1286 7.78275C37.1286 10.0239 35.3052 11.8476 33.064 11.8476C30.8226 11.8476 28.9992 10.0239 28.9992 7.78275C28.9992 5.54137 30.8226 3.71793 33.064 3.71793C35.3052 3.71793 37.1286 5.54137 37.1286 7.78275ZM19.7434 15.5334V-0.33338H32.7259V2.82749C31.408 2.91656 30.229 3.5205 29.3909 4.44112H21.7349C21.4855 4.44112 21.2832 4.64343 21.2832 4.89281C21.2832 5.14218 21.4855 5.3445 21.7349 5.3445H28.7378C28.4997 5.76525 28.3214 6.22368 28.2139 6.70893H21.7349C21.4855 6.70893 21.2832 6.91106 21.2832 7.16043C21.2832 7.41 21.4855 7.61212 21.7349 7.61212H28.1001C28.0982 7.66893 28.0958 7.72556 28.0958 7.78275C28.0958 8.19431 28.147 8.59387 28.2417 8.97656H21.7349C21.4855 8.97656 21.2832 9.17887 21.2832 9.42825C21.2832 9.67762 21.4855 9.87993 21.7349 9.87993H28.5617C28.7989 10.3871 29.1192 10.8476 29.505 11.2442H21.7242C21.4746 11.2442 21.2725 11.4465 21.2725 11.6959C21.2725 11.9452 21.4746 12.1476 21.7242 12.1476H30.5582C30.5963 12.1476 30.6332 12.1423 30.6685 12.1333C31.2863 12.4749 31.984 12.6877 32.7259 12.738V13.8429H21.2241C20.9952 13.8429 20.8024 14.0141 20.7756 14.2416C20.7488 14.469 20.8964 14.6805 21.1189 14.7337C21.6156 14.8528 21.9623 15.2931 21.9623 15.8047C21.9623 16.308 21.6261 16.7419 21.1422 16.869C21.1197 16.8654 21.0966 16.8632 21.0732 16.8632C20.34 16.8632 19.7434 16.2667 19.7434 15.5334ZM21.2832 2.13187C21.2832 1.88249 21.4855 1.68018 21.7349 1.68018H26.9114C27.1607 1.68018 27.363 1.88249 27.363 2.13187C27.363 2.38124 27.1607 2.58356 26.9114 2.58356H21.7349C21.4855 2.58356 21.2832 2.38124 21.2832 2.13187ZM33.064 4.64981C33.3134 4.64981 33.5157 4.85212 33.5157 5.1015V5.27418C34.1309 5.46675 34.5784 6.042 34.5784 6.71981C34.5784 6.96918 34.3763 7.1715 34.1267 7.1715C33.8774 7.1715 33.6752 6.96918 33.6752 6.71981C33.6752 6.38287 33.4009 6.10875 33.064 6.10875C32.727 6.10875 32.4527 6.38287 32.4527 6.71981C32.4527 7.05693 32.727 7.33106 33.064 7.33106C33.0795 7.33106 33.0949 7.33181 33.1101 7.33331C33.9239 7.35806 34.5784 8.02612 34.5784 8.8455C34.5784 9.5235 34.1309 10.0986 33.5157 10.2911V10.4638C33.5157 10.7132 33.3134 10.9155 33.064 10.9155C32.8146 10.9155 32.6123 10.7132 32.6123 10.4638V10.2911C31.9971 10.0986 31.5494 9.52331 31.5494 8.8455C31.5494 8.59612 31.7517 8.39381 32.001 8.39381C32.2504 8.39381 32.4527 8.59612 32.4527 8.8455C32.4527 9.18262 32.727 9.45675 33.064 9.45675C33.4009 9.45675 33.6752 9.18262 33.6752 8.8455C33.6752 8.50856 33.4009 8.23443 33.064 8.23443C33.0482 8.23443 33.033 8.2335 33.0177 8.232C32.2041 8.20725 31.5494 7.53937 31.5494 6.71981C31.5494 6.042 31.9971 5.46675 32.6123 5.27418V5.1015C32.6123 4.85212 32.8146 4.64981 33.064 4.64981Z" fill="#AAAAAA"/>
</g>
</g>
<defs>
<clipPath id="clip0_93_324">
<rect width="18" height="18" fill="white"/>
</clipPath>
</defs>
</svg>
